<?xml version="1.0" encoding="UTF-8" standalone="no"?>
<!DOCTYPE svg PUBLIC "-//W3C//DTD SVG 1.1//EN" "http://www.w3.org/Graphics/SVG/1.1/DTD/svg11.dtd">
<svg width="100%" height="100%" viewBox="0 0 1400 300" version="1.1" xmlns="http://www.w3.org/2000/svg"
     xmlns:xlink="http://www.w3.org/1999/xlink" xml:space="preserve" xmlns:serif="http://www.serif.com/"
     style="fill-rule:evenodd;clip-rule:evenodd;stroke-linejoin:round;stroke-miterlimit:2;">
    <g transform="matrix(0.76555,0,0,0.816488,-233.071,-113.744)">
        <g id="Logo">
            <g id="Logo1" serif:id="Logo">
                <g id="g99">
                    <path id="path59"
                          d="M386.422,207.617L460.581,249.6L461.059,163.804C461.059,163.805 452.79,232.839 386.422,207.617Z"
                          style="fill:rgb(100,179,54);fill-rule:nonzero;"/>
                    <path id="path61"
                          d="M442.255,187.435C442.255,196.709 434.733,204.237 425.457,204.237C416.176,204.237 408.651,196.71 408.651,187.435C408.651,178.157 416.175,170.63 425.457,170.63C434.733,170.63 442.255,178.156 442.255,187.435Z"
                          style="fill:rgb(100,179,54);fill-rule:nonzero;"/>
                    <path id="path63"
                          d="M614.673,207.617L540.511,249.6L540.035,163.804C540.035,163.805 548.306,232.839 614.673,207.617Z"
                          style="fill:rgb(253,195,26);fill-rule:nonzero;"/>
                    <path id="path65"
                          d="M558.84,187.435C558.84,196.709 566.363,204.237 575.644,204.237C584.918,204.237 592.445,196.71 592.445,187.435C592.445,178.157 584.919,170.63 575.644,170.63C566.363,170.63 558.84,178.156 558.84,187.435Z"
                          style="fill:rgb(253,195,26);fill-rule:nonzero;"/>
                    <g id="g83">
                        <path id="path67"
                              d="M386.422,425.485L460.581,383.502L461.059,469.301C461.059,469.301 452.79,400.271 386.422,425.485Z"
                              style="fill:rgb(27,73,107);fill-rule:nonzero;"/>
                        <path id="path69"
                              d="M442.255,445.678C442.255,436.393 434.733,428.872 425.457,428.872C416.176,428.872 408.651,436.393 408.651,445.678C408.651,454.944 416.175,462.476 425.457,462.476C434.733,462.476 442.255,454.943 442.255,445.678Z"
                              style="fill:rgb(27,73,107);fill-rule:nonzero;"/>
                        <path id="path71"
                              d="M345.425,272.547L418.611,316.193L344.299,359.086C344.298,359.086 400.193,317.718 345.425,272.547Z"
                              style="fill:rgb(47,188,225);fill-rule:nonzero;"/>
                        <path id="path73"
                              d="M355.915,331.156C363.907,326.441 366.562,316.137 361.846,308.149C357.125,300.159 346.827,297.499 338.837,302.218C330.845,306.937 328.194,317.239 332.907,325.228C337.627,333.222 347.929,335.873 355.915,331.156Z"
                              style="fill:rgb(47,188,225);fill-rule:nonzero;"/>
                        <path id="path75"
                              d="M655.844,359.373L582.004,316.834L655.656,272.827C655.656,272.827 600.395,315.028 655.844,359.373Z"
                              style="fill:rgb(232,66,48);fill-rule:nonzero;"/>
                        <path id="path77"
                              d="M644.855,301.033C636.871,305.743 634.208,316.048 638.924,324.037C643.638,332.03 653.936,334.687 661.932,329.971C669.92,325.259 672.579,314.961 667.871,306.964C663.156,298.969 652.849,296.314 644.855,301.033Z"
                              style="fill:rgb(232,66,48);fill-rule:nonzero;"/>
                        <path id="path79"
                              d="M614.673,425.485L540.511,383.502L540.035,469.301C540.035,469.301 548.306,400.271 614.673,425.485Z"
                              style="fill:rgb(167,25,68);fill-rule:nonzero;"/>
                        <path id="path81"
                              d="M558.84,445.678C558.84,436.393 566.363,428.872 575.644,428.872C584.918,428.872 592.445,436.393 592.445,445.678C592.445,454.944 584.919,462.476 575.644,462.476C566.363,462.476 558.84,454.943 558.84,445.678Z"
                              style="fill:rgb(167,25,68);fill-rule:nonzero;"/>
                    </g>
                    <g id="g97">
                        <path id="polygon85"
                              d="M521.911,272.234L521.435,283.095L530.262,277.729L628.37,218.079L529.947,268.145L526.581,164.307L521.911,272.234Z"
                              style="fill:rgb(247,220,139);fill-rule:nonzero;"/>
                        <path id="polygon87"
                              d="M472.565,365.851L476.921,482.241L481.344,361.31L481.727,350.706L472.219,356.556L375.133,416.248L472.565,365.851Z"
                              style="fill:rgb(134,178,209);fill-rule:nonzero;"/>
                        <path id="polygon89"
                              d="M521.322,362.558L525.802,482.241L530.002,367.212L626.385,418.899L530.349,357.858L520.921,351.87L521.322,362.558Z"
                              style="fill:rgb(245,133,166);fill-rule:nonzero;"/>
                        <path id="polygon91"
                              d="M443.908,316.625L351.107,373.682L451.701,321.65L461.291,316.688L452,311.645L352.407,257.599L443.908,316.625Z"
                              style="fill:rgb(161,230,247);fill-rule:nonzero;"/>
                        <path id="polygon93"
                              d="M473.229,267.584L377.099,215.415L472.812,277.158L481.544,282.789L481.189,271.904L477.702,164.307L473.229,267.584Z"
                              style="fill:rgb(176,222,149);fill-rule:nonzero;"/>
                        <path id="polygon95"
                              d="M540.641,317.492L550.339,322.697L651.084,376.723L558.388,317.802L652.396,260.645L550.229,312.617L540.641,317.492Z"
                              style="fill:rgb(255,154,143);fill-rule:nonzero;"/>
                    </g>
                </g>
            </g>
        </g>
    </g>
    <g transform="matrix(1.4038,0,0,1.4038,106.203,-592.601)">
        <g id="Text">
            <g id="a850">
                <g id="Madmed">
                    <g id="g22">
                        <path id="path2"
                              d="M151.623,509.01L173.687,509.01L173.687,519.114C177.46,514.961 181.656,511.869 186.265,509.808C190.873,507.764 195.899,506.748 201.341,506.748C206.846,506.748 211.802,508.096 216.222,510.786C220.646,513.483 224.203,517.411 226.903,522.593C230.401,517.41 234.698,513.483 239.796,510.786C244.889,508.096 250.462,506.748 256.507,506.748C262.749,506.748 268.252,508.196 272.989,511.117C277.741,514.016 281.149,517.821 283.228,522.506C285.293,527.183 286.337,534.815 286.337,545.377L286.337,596.931L264.114,596.931L264.114,552.326C264.114,542.361 262.876,535.61 260.394,532.085C257.917,528.549 254.197,526.789 249.249,526.789C245.471,526.789 242.094,527.864 239.101,530.017C236.12,532.181 233.89,535.149 232.434,538.953C230.979,542.755 230.257,548.856 230.257,557.25L230.257,596.933L208.032,596.933L208.032,554.34C208.032,546.486 207.441,540.78 206.291,537.249C205.126,533.722 203.39,531.108 201.066,529.377C198.747,527.65 195.935,526.789 192.646,526.789C188.96,526.789 185.641,527.887 182.636,530.07C179.645,532.249 177.401,535.301 175.91,539.236C174.432,543.163 173.687,549.366 173.687,557.826L173.687,596.933L151.623,596.933L151.623,509.01Z"
                              style="fill:rgb(253,195,26);fill-rule:nonzero;"/>
                        <path id="path4"
                              d="M372.235,509.01L394.303,509.01L394.303,596.93L372.235,596.93L372.235,587.637C367.933,591.726 363.612,594.686 359.283,596.493C354.952,598.288 350.262,599.196 345.202,599.196C333.841,599.196 324.023,594.786 315.741,585.977C307.459,577.168 303.304,566.228 303.304,553.134C303.304,539.553 307.32,528.432 315.334,519.755C323.35,511.086 333.093,506.748 344.552,506.748C349.829,506.748 354.776,507.743 359.401,509.736C364.036,511.736 368.311,514.722 372.235,518.706L372.235,509.01ZM349.052,527.116C342.23,527.116 336.571,529.523 332.056,534.348C327.542,539.173 325.287,545.348 325.287,552.889C325.287,560.48 327.589,566.736 332.177,571.63C336.768,576.538 342.42,578.991 349.126,578.991C356.061,578.991 361.803,576.586 366.365,571.761C370.926,566.932 373.208,560.616 373.208,552.814C373.208,545.151 370.926,538.962 366.365,534.22C361.803,529.483 356.033,527.116 349.052,527.116Z"
                              style="fill:rgb(232,66,48);fill-rule:nonzero;"/>
                        <path id="path6"
                              d="M481.49,475.069L503.553,475.069L503.553,596.93L481.491,596.93L481.491,587.637C477.195,591.726 472.874,594.686 468.533,596.493C464.213,598.288 459.515,599.196 454.452,599.196C443.109,599.196 433.279,594.786 424.995,585.977C416.714,577.168 412.568,566.228 412.568,553.134C412.568,539.553 416.572,528.432 424.594,519.755C432.609,511.086 442.349,506.748 453.814,506.748C459.077,506.748 464.027,507.743 468.66,509.736C473.286,511.736 477.572,514.722 481.49,518.706L481.49,475.069ZM458.302,527.116C451.489,527.116 445.821,529.523 441.308,534.348C436.801,539.173 434.548,545.348 434.548,552.889C434.548,560.48 436.839,566.736 441.426,571.63C446.024,576.538 451.67,578.991 458.388,578.991C465.313,578.991 471.055,576.586 475.625,571.761C480.184,566.932 482.466,560.616 482.466,552.814C482.466,545.151 480.184,538.962 475.625,534.22C471.055,529.483 465.284,527.116 458.302,527.116Z"
                              style="fill:rgb(167,25,68);fill-rule:nonzero;"/>
                        <path id="path8"
                              d="M525.696,509.01L547.76,509.01L547.76,519.114C551.534,514.961 555.726,511.869 560.333,509.808C564.938,507.764 569.971,506.748 575.418,506.748C580.915,506.748 585.874,508.096 590.295,510.786C594.715,513.483 598.272,517.411 600.976,522.593C604.474,517.41 608.779,513.483 613.867,510.786C618.96,508.096 624.533,506.748 630.577,506.748C636.825,506.748 642.318,508.196 647.066,511.117C651.813,514.016 655.225,517.821 657.298,522.506C659.373,527.183 660.408,534.815 660.408,545.377L660.408,596.931L638.184,596.931L638.184,552.326C638.184,542.361 636.953,535.61 634.47,532.085C631.988,528.549 628.274,526.789 623.319,526.789C619.546,526.789 616.168,527.864 613.173,530.017C610.192,532.181 607.966,535.149 606.517,538.953C605.053,542.755 604.326,548.856 604.326,557.25L604.326,596.933L582.104,596.933L582.104,554.34C582.104,546.486 581.523,540.78 580.368,537.249C579.203,533.722 577.458,531.108 575.136,529.377C572.821,527.65 570.01,526.789 566.719,526.789C563.039,526.789 559.71,527.887 556.709,530.07C553.714,532.249 551.471,535.301 549.984,539.236C548.508,543.163 547.761,549.366 547.761,557.826L547.761,596.933L525.698,596.933L525.698,509.01L525.696,509.01Z"
                              style="fill:rgb(27,73,107);fill-rule:nonzero;"/>
                        <path id="path10"
                              d="M769.502,559.349L698.625,559.349C699.663,565.609 702.391,570.574 706.828,574.264C711.278,577.952 716.953,579.8 723.851,579.8C732.087,579.8 739.171,576.914 745.1,571.151L763.685,579.877C759.057,586.451 753.513,591.313 747.043,594.465C740.585,597.613 732.905,599.195 724.017,599.195C710.213,599.195 698.98,594.84 690.306,586.144C681.637,577.431 677.305,566.542 677.305,553.462C677.305,540.037 681.628,528.896 690.277,520.036C698.929,511.176 709.763,506.745 722.805,506.745C736.638,506.745 747.901,511.176 756.576,520.036C765.25,528.896 769.582,540.599 769.582,555.154L769.502,559.349ZM747.439,541.984C745.991,537.077 743.116,533.088 738.822,530.014C734.537,526.956 729.56,525.407 723.889,525.407C717.73,525.407 712.346,527.142 707.709,530.581C704.788,532.736 702.087,536.531 699.607,541.984L747.439,541.984Z"
                              style="fill:rgb(47,188,225);fill-rule:nonzero;"/>
                        <path id="path12"
                              d="M852.262,475.069L874.321,475.069L874.321,596.93L852.262,596.93L852.262,587.637C847.949,591.726 843.622,594.686 839.304,596.493C834.963,598.288 830.263,599.196 825.217,599.196C813.866,599.196 804.045,594.786 795.747,585.977C787.462,577.168 783.325,566.228 783.325,553.134C783.325,539.553 787.324,528.432 795.354,519.755C803.366,511.086 813.103,506.748 824.567,506.748C829.845,506.748 834.792,507.743 839.42,509.736C844.048,511.736 848.326,514.722 852.262,518.706L852.262,475.069ZM829.059,527.116C822.246,527.116 816.585,529.523 812.07,534.348C807.558,539.173 805.304,545.348 805.304,552.889C805.304,560.48 807.593,566.736 812.191,571.63C816.781,576.538 822.434,578.991 829.142,578.991C836.064,578.991 841.822,576.586 846.381,571.761C850.941,566.932 853.218,560.616 853.218,552.814C853.218,545.151 850.94,538.962 846.381,534.22C841.822,529.483 836.034,527.116 829.059,527.116Z"
                              style="fill:rgb(100,179,54);fill-rule:nonzero;"/>
                    </g>
                </g>
            </g>
        </g>
    </g>
</svg>
